<svg width="125" height="132" viewBox="0 0 125 132" fill="none" xmlns="http://www.w3.org/2000/svg">
<path d="M50.6077 12.96L39.323 22.8L44.6181 25.68C59.5487 33.84 88.0209 48.8 88.1945 48.56C88.455 48.32 63.6286 4.72 62.6737 3.84C62.2397 3.44 57.1181 7.28 50.6077 12.96Z" fill="#F9603E"/>
<path d="M37.8473 27.76C37.5001 29.44 37.0661 31.44 36.8057 32.16C36.2848 33.68 38.2814 34 51.6494 34.8L59.4619 35.2L49.9133 30C44.705 27.2 39.9307 24.8 39.4098 24.8C38.8022 24.8 38.1078 26.16 37.8473 27.76Z" fill="#F9603E"/>
<path d="M84.2015 28.56C82.0314 29.28 80.2085 29.92 80.0349 30C79.6876 30.24 84.7224 39.44 88.021 44.8L90.2779 48.4V37.76C90.2779 26.08 90.6252 26.56 84.2015 28.56Z" fill="#F9603E"/>
<path d="M91.146 53.36C91.146 68.4 91.4064 79.2 91.8404 78.8C94.705 75.84 121.528 35.68 120.92 35.2C120.313 34.64 93.2293 27.2 91.8404 27.2C91.4932 27.2 91.2328 38.96 91.146 53.36Z" fill="#F9603E"/>
<path d="M2.86471 35.36C3.21193 36.4 4.77443 42.72 6.51054 49.36C8.24666 56.08 9.98277 61.6 10.2432 61.6C10.5904 61.6 21.9619 55.84 35.5904 48.8L60.33 36H55.9897C53.5592 36 41.3196 35.44 28.646 34.8C15.9724 34.16 4.94804 33.6 3.99318 33.6C2.77791 33.6 2.51749 34 2.86471 35.36Z" fill="#F9603E"/>
<path d="M22.1356 57.12C17.7953 59.36 13.5418 61.6 12.587 62.16C10.9377 63.04 11.0245 63.2 14.3231 66.32C16.146 68.16 17.9689 69.6 18.3161 69.6C18.9238 69.6 30.6425 53.52 30.2085 53.28C30.0349 53.2 26.4759 54.88 22.1356 57.12Z" fill="#F9603E"/>
<path d="M24.3056 64.4C20.3126 70.08 13.4549 79.84 9.02786 86.08L1.04175 97.36L16.2327 101.52C24.6529 103.76 31.5973 105.52 31.7709 105.36C32.0313 105.2 32.0313 93.52 31.9445 79.52L31.6841 54L24.3056 64.4Z" fill="#F9603E"/>
<path d="M99.2187 71.12C96.1806 75.44 93.75 79.2 93.75 79.52C93.75 79.76 95.2257 79.12 97.0486 78.08C98.7847 77.04 103.125 74.64 106.684 72.8L113.021 69.44L109.722 66.32C107.899 64.64 105.99 63.2 105.469 63.28C105.035 63.28 102.17 66.8 99.2187 71.12Z" fill="#F9603E"/>
<path d="M88.8023 83.84C75.7814 90.72 65.278 96.48 65.4516 96.64C65.7988 96.96 120.92 99.12 121.354 98.8C121.962 98.32 114.149 71.2 113.368 71.2C112.847 71.28 101.823 76.88 88.8023 83.84Z" fill="#F9603E"/>
<path d="M33.0729 94.64C32.9861 104.8 33.0729 105.68 34.5486 105.28C35.3299 105.12 37.6736 104.48 39.7569 103.92C41.7535 103.36 43.4028 102.72 43.316 102.48C43.316 102.24 40.9722 97.84 38.1944 92.8L33.0729 83.6V94.64Z" fill="#F9603E"/>
<path d="M43.0556 98.56C47.5694 106.64 53.2986 116.88 55.816 121.36C58.2465 125.92 60.5035 129.6 60.8507 129.6C61.4583 129.6 82.8125 111.28 83.1597 110.4C83.4201 109.84 76.1285 105.84 42.7083 87.84C38.7153 85.76 35.3299 84 35.1563 84C34.8958 84 38.4549 90.56 43.0556 98.56Z" fill="#F9603E"/>
<path d="M72.2222 102.24C85.7639 109.52 84.809 109.28 85.5034 105.76C85.7639 104.16 86.2847 102 86.5451 101.04C86.9791 99.2 86.4583 99.12 69.184 98.16L64.2361 97.84L72.2222 102.24Z" fill="#F9603E"/>
</svg>
